<svg width="26" height="27" viewBox="0 0 26 27" fill="none" xmlns="http://www.w3.org/2000/svg">
<g clip-path="url(#clip0_0_60)">
<path d="M24.2509 19.9449C23.3347 19.0219 21.1158 17.6748 20.0393 17.132C18.6373 16.4258 18.5219 16.3681 17.42 17.1868C16.6849 17.7331 16.1963 18.2211 15.3361 18.0377C14.4759 17.8542 12.6066 16.8198 10.9698 15.1884C9.33303 13.5569 8.23858 11.6335 8.05454 10.7763C7.8705 9.91896 8.36666 9.4361 8.90783 8.6994C9.67054 7.66098 9.61285 7.48791 8.96091 6.08605C8.45263 4.99571 7.06625 2.79773 6.13969 1.88623C5.14851 0.907238 5.14851 1.08031 4.50984 1.34568C3.98989 1.56443 3.49106 1.83034 3.01961 2.14007C2.09651 2.75331 1.58419 3.26271 1.22591 4.02826C0.867636 4.7938 0.70667 6.58853 2.55691 9.94954C4.40714 13.3106 5.70525 15.0292 8.39205 17.7083C11.0788 20.3874 13.1449 21.8279 16.1651 23.5217C19.9014 25.6141 21.3345 25.2062 22.1024 24.8485C22.8703 24.4909 23.382 23.9832 23.9965 23.0602C24.307 22.5895 24.5735 22.0913 24.7926 21.5718C25.0586 20.9354 25.2317 20.9354 24.2509 19.9449Z" stroke="#576D79" stroke-width="2" stroke-miterlimit="10"/>
</g>
<defs>
<clipPath id="clip0_0_60">
<rect width="26" height="26" fill="white" transform="translate(0 0.138672)"/>
</clipPath>
</defs>
</svg>
